PathFileType	4	(X/Y/Z)	./resultDataOpenSim/trcMotMarkerGrf/sub06/qtm-05-03.trc
DataRate	CameraRate	NumFrames	NumMarkers	Units	OrigDataRate	OrigDataStartFrame	OrigNumFrames
250.000000	250.000000	11	24	m	250.000000	1	520
Frame#	Time	L.Toe.Tip			R.Toe.Tip			L.Ankle.Lat			R.Ankle.Lat			L.Ankle.Med			R.Ankle.Med			L.Heel			R.Heel			L.Knee.Lat			R.Knee.Lat			L.Knee.Med			R.Knee.Med			L.Thigh.Upper			R.Thigh.Upper			L.ASIS			R.ASIS			V.Sacral			L.Acromium			R.Acromium			C7			L.Elbow			R.Elbow			L.Wrist.Lat			R.Wrist.Lat
		X1	Y1	Z1	X2	Y2	Z2	X3	Y3	Z3	X4	Y4	Z4	X5	Y5	Z5	X6	Y6	Z6	X7	Y7	Z7	X8	Y8	Z8	X9	Y9	Z9	X10	Y10	Z10	X11	Y11	Z11	X12	Y12	Z12	X13	Y13	Z13	X14	Y14	Z14	X15	Y15	Z15	X16	Y16	Z16	X17	Y17	Z17	X18	Y18	Z18	X19	Y19	Z19	X20	Y20	Z20	X21	Y21	Z21	X22	Y22	Z22	X23	Y23	Z23	X24	Y24	Z24

1	0	-1.5710822	0.032934746	-0.05038855	-1.0833912	0.083941019	0.17645717	-1.6944461	0.070132574	-0.059827014	-1.2129357	0.081083224	0.1734258	-1.6825464	0.080982834	0.024319063	-1.1899982	0.10893537	0.092415924	NaN	NaN	NaN	-1.2506521	0.047265738	0.097325168	-1.5571102	0.41531694	-0.073903826	-1.2518492	0.47114865	0.19139962	-1.5703526	0.41645309	0.045526835	-1.2604367	0.45043364	0.065779109	-1.4670596	0.79248509	-0.13768604	-1.4457802	0.79168059	0.21637454	-1.3839804	0.8322639	-0.094678336	-1.3646965	0.84199104	0.1496009	-1.5583033	0.91662465	0.045712495	-1.3983407	1.3231016	-0.14858461	-1.4101857	1.3053174	0.21407387	-1.4809965	1.3537606	0.031128009	-1.4247117	1.0031739	-0.22243598	NaN	NaN	NaN	-1.2359116	0.84084598	-0.1955352	-1.4261001	0.80162759	0.31070968
2	0.004	-1.5710657	0.032891294	-0.05043538	-1.0659257	0.087071388	0.17723105	-1.6928956	0.070627362	-0.060340685	-1.1955916	0.080713273	0.17471555	-1.6823564	0.081183642	0.024245107	-1.1734494	0.10936189	0.093553447	NaN	NaN	NaN	-1.232682	0.046076181	0.098893587	-1.5544369	0.41448007	-0.074053418	-1.2456504	0.46963812	0.19112828	-1.5676089	0.41555558	0.045541761	-1.2539789	0.4485589	0.06558421	-1.4627423	0.79102679	-0.13798775	-1.4395742	0.79003593	0.21628175	-1.378808	0.83051139	-0.094795028	-1.3585239	0.84025324	0.1497229	-1.5527325	0.91513475	0.045988094	-1.3924802	1.3214903	-0.14825823	-1.4045562	1.3033143	0.21443131	-1.4753412	1.3522121	0.03167614	-1.4171612	1.0013358	-0.22205627	NaN	NaN	NaN	-1.2277075	0.84046066	-0.19425597	-1.4212791	0.79966655	0.31131051
3	0.008	-1.5710581	0.032851702	-0.050481982	-1.0487148	0.090299976	0.17789872	-1.6919724	0.071035526	-0.060624003	-1.1783163	0.08062048	0.17608568	-1.6822344	0.081402686	0.024191517	-1.1571243	0.10993277	0.094721891	NaN	NaN	NaN	-1.2149405	0.045068582	0.10050086	-1.5516474	0.41363208	-0.074190152	-1.2393984	0.46810214	0.19083776	-1.5649124	0.41461115	0.045588511	-1.2475528	0.44666406	0.065335521	-1.458165	0.78955632	-0.13777785	-1.4333786	0.78834136	0.21628018	-1.3735992	0.82879425	-0.09488793	-1.3523382	0.83847756	0.14982355	-1.5469659	0.9136678	0.046401784	-1.3866042	1.3198602	-0.14793372	-1.3989247	1.3013387	0.21481743	-1.4696548	1.3506651	0.03222671	-1.4096173	0.99948698	-0.22166068	NaN	NaN	NaN	-1.2195254	0.84005047	-0.19295725	-1.4164831	0.79769127	0.31187921
4	0.012	-1.5710657	0.032812883	-0.050523323	-1.0318928	0.093702183	0.1784007	-1.6917772	0.071333002	-0.060625298	-1.1612679	0.080887477	0.17753289	-1.6821828	0.081648615	0.024161138	-1.1411868	0.1107084	0.095930088	NaN	NaN	NaN	-1.1975589	0.044340182	0.10218367	-1.548688	0.41277293	-0.074310502	-1.2331404	0.46649747	0.19051189	-1.5620558	0.41361665	0.045647324	-1.2411659	0.44473473	0.065007157	-1.4532964	0.78806104	-0.13689311	-1.427185	0.78659556	0.21635843	-1.3683092	0.82711792	-0.094936664	-1.3461225	0.83664726	0.14989618	-1.5407843	0.91224555	0.047025624	-1.3807059	1.318198	-0.14760491	-1.3932719	1.2993825	0.21523831	-1.4638742	1.3491291	0.032796476	-1.4021452	0.9976277	-0.22132274	NaN	NaN	NaN	-1.2113722	0.83960088	-0.19164025	-1.4118873	0.79567082	0.31238359
5	0.016	-1.5710857	0.032769482	-0.050552668	-1.0155094	0.097325084	0.17869957	-1.6918869	0.071591255	-0.060488235	-1.1446245	0.081462121	0.1790115	-1.6821568	0.081924883	0.024147974	-1.1257338	0.11167134	0.097154401	NaN	NaN	NaN	-1.1806053	0.043895719	0.10395156	-1.5455873	0.41191263	-0.074422421	-1.2269719	0.46479947	0.19015886	-1.558785	0.41258669	0.04567245	-1.2348203	0.44276943	0.064603522	-1.4482957	0.78654016	-0.13561643	-1.4209953	0.78481423	0.21644561	-1.3629138	0.82546554	-0.094907072	-1.3398791	0.83476805	0.14994112	-1.5340717	0.9108635	0.047835276	-1.3747975	1.3165074	-0.14726174	-1.3875968	1.2974328	0.21568843	-1.4579877	1.3475998	0.033359992	-1.3947945	0.99576784	-0.22109232	NaN	NaN	NaN	-1.2032603	0.83910822	-0.19031885	-1.4075916	0.79359564	0.31283322
6	0.02	-1.5711036	0.032722478	-0.050573157	-0.99954647	0.10120706	0.17875326	-1.6918789	0.071906773	-0.060371777	-1.1284614	0.082285623	0.1804831	-1.6820844	0.082240376	0.024144384	-1.1107856	0.11277786	0.098351698	NaN	NaN	NaN	-1.1640917	0.043687779	0.10579204	-1.5424006	0.41105935	-0.074535016	-1.2209137	0.46302927	0.18981689	-1.5550675	0.41152901	0.0456332	-1.228503	0.44077972	0.064146121	-1.4433202	0.78501627	-0.13444773	-1.4148048	0.78299155	0.2165127	-1.3574206	0.82383199	-0.094771937	-1.3336074	0.83286111	0.14996087	-1.5270492	0.90946746	0.048709453	-1.3688808	1.3148055	-0.14689462	-1.3819131	1.2954931	0.21616789	-1.4520458	1.3460554	0.033843831	-1.3875318	0.99391089	-0.22091563	NaN	NaN	NaN	-1.1951977	0.83857041	-0.18899962	-1.4034819	0.79148608	0.31327304
7	0.024	-1.5710916	0.032682865	-0.05061313	-0.98399373	0.10534252	0.17855069	-1.6916446	0.072321483	-0.060331809	-1.1128019	0.083311944	0.18190439	-1.6818403	0.082617032	0.024134797	-1.0963442	0.11398416	0.099476703	NaN	NaN	NaN	-1.1480279	0.04365533	0.10767473	-1.5391452	0.41021718	-0.074650079	-1.2148718	0.46125396	0.18953244	-1.5510257	0.41046592	0.045523128	-1.2221874	0.43879249	0.063661923	-1.4384277	0.78352296	-0.13368648	-1.4085923	0.78112349	0.21658143	-1.3518868	0.82222184	-0.094587657	-1.3272876	0.83094968	0.14996249	-1.520198	0.90799655	0.049508517	-1.3629473	1.3131138	-0.14649875	-1.3762267	1.2935703	0.2166775	-1.44609	1.344489	0.034232192	-1.3803011	0.99205578	-0.22070184	NaN	NaN	NaN	-1.1871892	0.83798752	-0.18767997	-1.3993963	0.78937151	0.31373237
8	0.028	-1.5710067	0.032667456	-0.050727938	-0.96895064	0.10961452	0.17817539	-1.6912463	0.072830304	-0.060362151	-1.0976773	0.084487942	0.18323056	-1.6812881	0.083085844	0.024099768	-1.0824206	0.11525369	0.10049224	NaN	NaN	NaN	-1.1324777	0.043740284	0.10952179	-1.5357898	0.4093902	-0.074763213	-1.2086847	0.45955882	0.18933414	-1.5468091	0.40942723	0.045365897	-1.2158474	0.43683963	0.063171854	-1.4335843	0.78207706	-0.13326119	-1.4023446	0.77922637	0.21666362	-1.3464106	0.82061379	-0.094505148	-1.3209052	0.82904189	0.14995569	-1.513799	0.90644707	0.050196939	-1.3569907	1.3114457	-0.14607384	-1.3705365	1.2916719	0.21721482	-1.4401139	1.3429192	0.034613934	-1.3730736	0.99020608	-0.22040655	NaN	NaN	NaN	-1.1792332	0.83737296	-0.18635104	-1.3952491	0.78727672	0.31421027
9	0.032	-1.5708074	0.032688591	-0.050970136	-0.95461353	0.11381327	0.17778993	-1.6907558	0.073412423	-0.060436582	-1.0831381	0.085746196	0.18442041	-1.6804266	0.083655906	0.024033312	-1.0690304	0.11655142	0.10136985	NaN	NaN	NaN	-1.1175467	0.043887756	0.1112116	-1.5323086	0.40858701	-0.07486404	-1.2021697	0.45801642	0.18923728	-1.5425503	0.40842353	0.045207454	-1.2094661	0.43494142	0.062687413	-1.4287235	0.78067029	-0.1329407	-1.3960731	0.77732345	0.2167388	-1.3410654	0.81897881	-0.094645976	-1.314474	0.82714221	0.14995163	-1.5077548	0.90486685	0.050847181	-1.3510074	1.3098018	-0.1456198	-1.3648488	1.2898124	0.21778064	-1.4340909	1.3413731	0.035087916	-1.3658521	0.98837202	-0.22005997	NaN	NaN	NaN	-1.1713191	0.83674838	-0.18500439	-1.391022	0.78521645	0.31469252
10	0.036	-1.5705025	0.032744175	-0.051331989	-0.94112281	0.11776568	0.1775028	-1.6902372	0.074043729	-0.06051677	-1.0692509	0.087008142	0.18542824	-1.6794325	0.084286233	0.023947053	-1.0561999	0.11782912	0.10208825	NaN	NaN	NaN	-1.1033067	0.044056534	0.11264369	-1.5287198	0.40781947	-0.074932499	-1.1951534	0.45667927	0.18926344	-1.538318	0.40744909	0.045091663	-1.2030327	0.43310189	0.062220129	-1.4237992	0.77928075	-0.1325672	-1.3897976	0.77543063	0.21678435	-1.3358181	0.81732566	-0.094963757	-1.3080082	0.82526282	0.14995835	-1.5018396	0.90330001	0.051544798	-1.3449935	1.3081751	-0.14513891	-1.3591624	1.2880027	0.21837737	-1.4280115	1.3398661	0.035664271	-1.3586519	0.98656734	-0.21971607	NaN	NaN	NaN	-1.1634447	0.83611779	-0.183646	-1.3867268	0.78319666	0.3151725
11	0.04	-1.5701946	0.032810999	-0.051701851	-0.92848246	0.12140061	0.17729206	-1.6897482	0.074711262	-0.060573985	-1.0560776	0.088195994	0.18621697	-1.6784864	0.084918797	0.023852698	-1.0439693	0.11902506	0.1026327	NaN	NaN	NaN	-1.0897651	0.044227708	0.11377224	-1.5250537	0.40708916	-0.074942652	-1.187656	0.45555118	0.18940494	-1.5341136	0.40650093	0.045044671	-1.1965352	0.43131869	0.061790993	-1.4187977	0.77789013	-0.13210435	-1.3835263	0.77354867	0.21680423	-1.330547	0.81568775	-0.095280556	-1.3014941	0.82341269	0.14997299	-1.4958948	0.90176179	0.052356352	-1.338943	1.3065612	-0.14463288	-1.3534505	1.2862347	0.21900135	-1.4218926	1.3383939	0.036267805	-1.3514755	0.98480111	-0.21936918	NaN	NaN	NaN	-1.1556259	0.8354633	-0.18229538	-1.3823795	0.78121954	0.31565894
